# xmcd CD database file
#
# Track frame offsets:
#	150
#	14173
#	28460
#	38710
#	51718
#	62433
#	75715
#	87110
#	95440
#	104370
#	119418
#	131668
#	143055
#	155330
#	165403
#	173445
#	185508
#	195450
#	204915
#	213598
#
# Disc length: 2980 seconds
#
# Revision: 0
# Processed by: cddbd v1.5.2PL0 Copyright (c) Steve Scherf et al.
# Submitted via: CDex 1.70beta2
#
DISCID=140ba214
DTITLE=Simon and Garfunkel - Misc. Collection
DYEAR=1900
DGENRE=Country
TTITLE0=The Sound of Silence
TTITLE1=Scarborough Fair/Canticle
TTITLE2=Wednesday Morning 3AM
TTITLE3=I am a Rock
TTITLE4=Leaves that are Green
TTITLE5=Richard Cory
TTITLE6=A most Peculiar Man
TTITLE7=April come She will
TTITLE8=We've got a Groovey thing goin'
TTITLE9=Kathy's Song
TTITLE10=Patterns
TTITLE11=Homeward Bound
TTITLE12=The Big Bright Green Pleasure Machine
TTITLE13=A Simple Desultory Philippic
TTITLE14=The 59th Street Bridge Song
TTITLE15=The Dangling Conversation
TTITLE16=Flowers Never Bend with the Rainfall
TTITLE17=For Emily, whenever I may find her
TTITLE18=A Poem on the Underground Wall
TTITLE19=Cloudy
EXTD=
EXTT0=
EXTT1=
EXTT2=
EXTT3=
EXTT4=
EXTT5=
EXTT6=
EXTT7=
EXTT8=
EXTT9=
EXTT10=
EXTT11=
EXTT12=
EXTT13=
EXTT14=
EXTT15=
EXTT16=
EXTT17=
EXTT18=
EXTT19=
PLAYORDER=
